<svg id="图层_1" data-name="图层 1" xmlns="http://www.w3.org/2000/svg" xmlns:xlink="http://www.w3.org/1999/xlink" viewBox="0 0 20.02 19.69"><defs><style>.cls-1{fill:url(#未命名的渐变_2);}</style><linearGradient id="未命名的渐变_2" x1="34.44" y1="-159.28" x2="50.27" y2="-148" gradientTransform="matrix(1, 0, 0, -1, -32.25, -143.86)" gradientUnits="userSpaceOnUse"><stop offset="0" stop-color="#c18dcf"/><stop offset="0.46" stop-color="#667686"/><stop offset="0.58" stop-color="#6a7688"/><stop offset="0.7" stop-color="#767590"/><stop offset="0.82" stop-color="#8a759c"/><stop offset="0.94" stop-color="#a574ac"/><stop offset="1" stop-color="#b573b6"/></linearGradient></defs><title>849f5059f49edb32ee19fb9c74d8c7e</title><path class="cls-1" d="M18.73,14.14a9.72,9.72,0,1,1-4.42-13l0,0a3.64,3.64,0,0,1,1.83,2.62,4.81,4.81,0,0,1-.35,3A1,1,0,0,1,16.25,8l-.49,1.24a1,1,0,0,1-1.92-.76l.49-1.24a1,1,0,0,1,1-.64,4.24,4.24,0,0,0,.34-2.75,3.14,3.14,0,0,0-1.56-2.26,9.22,9.22,0,1,0,4.5,4.93.25.25,0,0,1,.47-.18A9.74,9.74,0,0,1,18.73,14.14ZM17.91,5a.25.25,0,1,0,.43-.26h0a9.7,9.7,0,0,0-.8-1.13.25.25,0,1,0-.39.32,9.21,9.21,0,0,1,.77,1.08ZM11.7,2.49a7.59,7.59,0,0,0-5.5.85.25.25,0,0,0,.13.47.25.25,0,0,0,.13,0A7.08,7.08,0,0,1,11.6,3a.25.25,0,0,0,.3-.19h0a.25.25,0,0,0-.15-.32h0ZM4.81,4.37a7.74,7.74,0,0,0-.87,1,.23.23,0,1,0,.35.3,7.09,7.09,0,0,1,.81-.9.25.25,0,0,0-.34-.36ZM8.19,17.31a7.62,7.62,0,0,0,6.13-1.1.25.25,0,1,0-.23-.44l0,0a7.11,7.11,0,0,1-5.73,1,.25.25,0,1,0-.12.49ZM16,13.73a7.17,7.17,0,0,1-.69.91.25.25,0,1,0,.38.33,7.71,7.71,0,0,0,.73-1A.25.25,0,0,0,16,13.7ZM10,6.57A3.24,3.24,0,1,1,6.8,9.81h0A3.25,3.25,0,0,1,10,6.58Zm0,.5a2.74,2.74,0,1,0,2.74,2.74h0A2.75,2.75,0,0,0,10,7.08ZM5.64,9.56a.25.25,0,0,0-.25.25A4.65,4.65,0,0,0,10,14.46h0a.25.25,0,0,0,0-.5A4.15,4.15,0,0,1,5.89,9.81h0a.25.25,0,0,0-.26-.24h0ZM10,7.86a2,2,0,1,1-2,2,2,2,0,0,1,2-2Zm0,.5a1.45,1.45,0,1,0,1.48,1.46A1.45,1.45,0,0,0,10,8.36h0Z"/></svg>