<svg id="图层_1" data-name="图层 1" xmlns="http://www.w3.org/2000/svg" xmlns:xlink="http://www.w3.org/1999/xlink" viewBox="0 0 20.02 19.69"><defs><style>.cls-1{fill:url(#未命名的渐变);}</style><linearGradient id="未命名的渐变" x1="34.02" y1="-158.94" x2="50.42" y2="-148.52" gradientTransform="matrix(1, 0, 0, -1, -32.25, -143.86)" gradientUnits="userSpaceOnUse"><stop offset="0" stop-color="#c18dcf"/><stop offset="0.46" stop-color="#667686"/><stop offset="0.58" stop-color="#6a7688"/><stop offset="0.7" stop-color="#767590"/><stop offset="0.82" stop-color="#8a759c"/><stop offset="0.94" stop-color="#a574ac"/><stop offset="1" stop-color="#b573b6"/></linearGradient></defs><title>849f5059f49edb32ee19fb9c74d8c7e</title><path class="cls-1" d="M6.64,18.69a.25.25,0,0,1-.23.15h-.1a9.69,9.69,0,0,1-1.39-.71.25.25,0,0,1,.26-.43,9.28,9.28,0,0,0,1.32.67A.25.25,0,0,1,6.64,18.69ZM10,.12A9.72,9.72,0,0,0,1.56,14.69h.06A3.29,3.29,0,0,0,4.5,16.11c1.72,0,3.13-1,3.13-2.31h0L6.15,6.57a.21.21,0,0,0,0,.06c2.05,1.55,4-1,4-1C7.41,7,5.59,3.77,5.59,3.77L5.64,4V3.8a.25.25,0,0,0-.49.1l2,9.93c0,1-1.18,1.8-2.62,1.8S1.88,14.8,1.88,13.8,3.06,12,4.51,12a3.77,3.77,0,0,1,.6,0,.25.25,0,0,0,.08-.49,4.2,4.2,0,0,0-.68-.05,3.07,3.07,0,0,0-3,1.8,9.2,9.2,0,1,1,6.37,5.57.25.25,0,0,0-.12.48A9.72,9.72,0,1,0,10,.13ZM8.49,17.19a.25.25,0,0,0,.19.3h0a7.39,7.39,0,0,0,5.2-.8.25.25,0,1,0-.21-.46l0,0A6.93,6.93,0,0,1,8.81,17,.25.25,0,0,0,8.49,17.19Zm7.4-3.12a6.92,6.92,0,0,1-1,1.21.25.25,0,1,0,.29.41l.05,0a7.4,7.4,0,0,0,1.09-1.29.25.25,0,0,0-.42-.28Zm0-6.52a.25.25,0,1,0,0-.5H11.47a.25.25,0,0,0,0,.5ZM8.7,9.81a.25.25,0,0,0,.25.25h6.93a.25.25,0,1,0,0-.5H8.94a.25.25,0,0,0-.25.25Zm.25,2.76h6.93a.25.25,0,1,0,0-.5H8.94a.25.25,0,0,0,0,.5Z"/></svg>