<?xml version="1.0" standalone="no"?><!DOCTYPE svg PUBLIC "-//W3C//DTD SVG 1.1//EN" "http://www.w3.org/Graphics/SVG/1.1/DTD/svg11.dtd"><svg t="1545873906175" class="icon" style="" viewBox="0 0 1024 1024" version="1.1" xmlns="http://www.w3.org/2000/svg" p-id="3005" xmlns:xlink="http://www.w3.org/1999/xlink" width="81" height="81"><defs><style type="text/css"></style></defs><path d="M362.459 120.894h621.171c19.052 0 34.509 15.434 34.509 34.509v23.007c0 19.053-15.457 34.51-34.509 34.51h-621.171c-19.075 0-34.51-15.457-34.51-34.51v-23.007c0-19.076 15.435-34.509 34.51-34.509z" p-id="3006" fill="#ffffff"></path><path d="M362.459 465.987h621.171c19.052 0 34.509 15.435 34.509 34.51v23.006c0 19.053-15.457 34.51-34.509 34.51h-621.171c-19.075 0-34.51-15.457-34.51-34.51v-23.006c0-19.076 15.435-34.51 34.51-34.51z" p-id="3007" fill="#ffffff"></path><path d="M362.459 811.082h621.171c19.052 0 34.509 15.445 34.509 34.51v23.008c0 19.052-15.457 34.508-34.509 34.508h-621.171c-19.075 0-34.51-15.456-34.51-34.508v-23.008c0-19.065 15.435-34.51 34.51-34.51z" p-id="3008" fill="#ffffff"></path><path d="M40.372 120.894h23.007c19.052 0 34.509 15.434 34.509 34.509v23.007c0 19.053-15.457 34.51-34.509 34.51h-23.007c-19.063 0-34.51-15.457-34.51-34.51v-23.007c0-19.076 15.445-34.509 34.51-34.509z" p-id="3009" fill="#ffffff"></path><path d="M40.372 465.987h23.007c19.052 0 34.509 15.435 34.509 34.51v23.006c0 19.053-15.457 34.51-34.509 34.51h-23.007c-19.063 0-34.51-15.457-34.51-34.51v-23.006c0-19.076 15.445-34.51 34.51-34.51z" p-id="3010" fill="#ffffff"></path><path d="M40.372 811.082h23.007c19.052 0 34.509 15.445 34.509 34.51v23.008c0 19.052-15.457 34.508-34.509 34.508h-23.007c-19.063 0-34.51-15.456-34.51-34.508v-23.008c0-19.065 15.445-34.51 34.51-34.51z" p-id="3011" fill="#ffffff"></path></svg>