<?xml version="1.0" standalone="no"?><!DOCTYPE svg PUBLIC "-//W3C//DTD SVG 1.1//EN" "http://www.w3.org/Graphics/SVG/1.1/DTD/svg11.dtd"><svg t="1545874696508" class="icon" style="" viewBox="0 0 1024 1024" version="1.1" xmlns="http://www.w3.org/2000/svg" p-id="4463" xmlns:xlink="http://www.w3.org/1999/xlink" width="81" height="81"><defs><style type="text/css"></style></defs><path d="M453.963496 906.962626c-49.694074 0-99.508618-8.071522-146.371636-23.973626a449.746427 449.746427 0 0 1-174.802669-108.814963A451.975131 451.975131 0 0 1 0.000602 453.481614 451.975131 451.975131 0 0 1 132.819309 132.819309 451.975131 451.975131 0 0 1 453.481614 0.000602a451.975131 451.975131 0 0 1 320.692423 132.818707 451.975131 451.975131 0 0 1 132.818706 320.692423 451.975131 451.975131 0 0 1-132.818706 320.692423 30.569385 30.569385 0 0 1-43.339256 0 30.569385 30.569385 0 0 1 0-43.339256 389.782244 389.782244 0 0 0 114.92884-277.473638c0-104.779202-40.749141-203.414409-114.92884-277.473637a389.782244 389.782244 0 0 0-277.473637-114.92884A389.571421 389.571421 0 0 0 175.887506 175.887506c-152.997512 152.997512-152.997512 401.949763 0 554.947275a390.565302 390.565302 0 0 0 322.409127 112.338724 396.528591 396.528591 0 0 0 65.355237-13.191517c16.263515-4.758584 33.1595 4.517643 37.948202 20.781158 4.758584 16.293633-4.517643 33.189618-20.811276 37.948202-24.606096 7.228229-50.055485 12.378342-75.534992 15.209398-16.865867 2.078116-34.153382 3.04188-51.290308 3.04188z" fill="#ffffff" p-id="4464"></path><path d="M994.544666 1023.999699c-7.529405 0-15.05881-2.831056-20.781158-8.583522l-233.712735-233.712735a29.394798 29.394798 0 0 1 0-41.622551 29.36468 29.36468 0 0 1 41.622551 0l233.712735 233.712734A29.394798 29.394798 0 0 1 994.514548 1023.999699z" fill="#ffffff" p-id="4465"></path></svg>