<svg id="图层_1" data-name="图层 1" xmlns="http://www.w3.org/2000/svg" xmlns:xlink="http://www.w3.org/1999/xlink" viewBox="0 0 20.02 19.69"><defs><style>.cls-1{fill:url(#未命名的渐变_3);}</style><linearGradient id="未命名的渐变_3" x1="33.52" y1="-158.5" x2="50.57" y2="-149.16" gradientTransform="matrix(1, 0, 0, -1, -32.25, -143.86)" gradientUnits="userSpaceOnUse"><stop offset="0" stop-color="#c18dcf"/><stop offset="0.45" stop-color="#667686"/><stop offset="0.58" stop-color="#6a7688"/><stop offset="0.7" stop-color="#767590"/><stop offset="0.82" stop-color="#8a759c"/><stop offset="0.94" stop-color="#a574ac"/><stop offset="1" stop-color="#b573b6"/></linearGradient></defs><title>849f5059f49edb32ee19fb9c74d8c7e</title><path class="cls-1" d="M11.26,13.61a1.38,1.38,0,0,0-1.89-1.74,1.5,1.5,0,1,1,1.89,1.74ZM6.78,7.07h.07a5,5,0,0,1-.26-1.52A3.61,3.61,0,0,1,10,1.85a3.53,3.53,0,0,1,3.49,3.56c0,2.06-1.69,4.71-3.49,4.71-1.27,0-2.41-1.21-3-2.63a.23.23,0,0,1-.09.07c-3.69.95-3.69,3.66-3.69,5.84a.25.25,0,0,1-.5,0C2.71,11.17,2.71,8.12,6.78,7.07Zm.31-1.51c0,1.77,1.4,4.06,2.89,4.06s3-2.41,3-4.21A3,3,0,0,0,10,2.35H10A3.11,3.11,0,0,0,7.09,5.56ZM9.49,17.7a.25.25,0,0,0,0,.5h.37a9.89,9.89,0,0,0,4-1.27.25.25,0,0,0-.25-.43,9.38,9.38,0,0,1-3.78,1.2Zm6.21-2.89a6.56,6.56,0,0,1-1,1,.25.25,0,1,0,.3.4,7,7,0,0,0,1.11-1,.25.25,0,1,0-.38-.33h0Zm1.51-2.37a.25.25,0,0,0,.25-.25,5.32,5.32,0,0,0-2.89-4.43.25.25,0,0,0-.24.44,4.82,4.82,0,0,1,2.63,4,.25.25,0,0,0,.25.23ZM8.75,14.09A.2.2,0,0,1,8.89,14h0a.2.2,0,0,1,.14.34.25.25,0,1,0,.3.4l.05-.05a.7.7,0,0,0-.5-1.2h0a.7.7,0,0,0-.5.21.25.25,0,1,0,.3.4l.05-.05Zm11-4.22A9.73,9.73,0,0,1,10,19.58h0a3.76,3.76,0,0,1-2.8-1.29,2.31,2.31,0,0,1-.45-1.83l-.08-.05a1,1,0,0,1,0-1.41l0,0,1.74-2.18a1.36,1.36,0,0,1,1.94,1.92L8.14,16.47a1,1,0,0,1-.72.29H7.25a1.79,1.79,0,0,0,.38,1.31,3.23,3.23,0,0,0,2.4,1.1,9.21,9.21,0,1,0-3.79-.81.25.25,0,0,1-.14.32l-.1,0A9.72,9.72,0,1,1,19.71,9.84ZM7.28,16.18h.16A.49.49,0,0,0,7.77,16h0L10,14.29a.84.84,0,0,0-1.21-1.17h0L7,15.3a.55.55,0,0,0-.17.39.5.5,0,0,0,0,.2.49.49,0,0,0,0,.08V16h0A.49.49,0,0,0,7.28,16.18Z"/></svg>